<?xml version="1.0" standalone="no"?>
<!DOCTYPE svg PUBLIC "-//W3C//DTD SVG 20010904//EN"
 "http://www.w3.org/TR/2001/REC-SVG-20010904/DTD/svg10.dtd">
<svg version="1.0" xmlns="http://www.w3.org/2000/svg"
 width="465.000000pt" height="537.000000pt" viewBox="0 0 465.000000 537.000000"
 preserveAspectRatio="xMidYMid meet">

<g transform="translate(0.000000,537.000000) scale(0.100000,-0.100000)"
fill="#000000" stroke="none">
<path d="M1710 4919 c-344 -198 -760 -438 -925 -534 -165 -95 -385 -222 -490
-282 l-190 -109 -3 -1297 -2 -1296 117 -69 c65 -38 374 -217 688 -397 314
-181 680 -392 815 -470 135 -78 329 -190 432 -249 l186 -107 644 372 c354 204
858 495 1121 646 l477 275 0 1293 0 1292 -257 148 c-142 82 -646 373 -1121
647 -474 274 -864 498 -865 498 -1 0 -283 -162 -627 -361z m551 229 c-5 -13
-94 -216 -199 -453 -104 -236 -231 -524 -282 -640 -51 -115 -95 -213 -99 -217
-3 -4 -168 11 -366 32 -198 22 -466 51 -595 65 -420 46 -482 53 -485 57 -4 3
308 184 1775 1030 140 81 256 148 257 148 1 0 -1 -10 -6 -22z m1349 -671 c448
-258 819 -473 824 -478 12 -11 -6 -14 -289 -44 -280 -29 -602 -64 -929 -100
-121 -14 -221 -23 -223 -21 -7 7 -583 1320 -583 1330 0 3 87 -45 193 -106 105
-61 559 -322 1007 -581z m-733 -529 l65 -148 -268 -462 c-147 -255 -276 -476
-286 -493 -17 -29 -18 2 -18 1110 l0 1140 221 -500 c121 -275 250 -566 286
-647z m-567 20 c0 -930 -2 -1110 -13 -1098 -24 26 -547 937 -547 952 0 8 121
290 270 627 149 338 270 617 270 622 0 5 5 9 10 9 7 0 10 -377 10 -1112z
m-1300 -124 c377 -41 689 -79 694 -84 14 -14 574 -985 571 -989 -2 -2 -419
237 -927 530 -508 293 -957 552 -998 576 -57 33 -69 43 -50 43 14 0 333 -34
710 -76z m3355 57 c-16 -11 -293 -171 -615 -357 -322 -185 -751 -433 -953
-550 -203 -117 -366 -207 -364 -199 3 7 119 210 258 452 139 241 263 457 276
479 28 50 -27 39 523 99 234 26 513 57 620 70 107 12 215 23 240 24 l45 1 -30
-19z m-4015 -286 c37 -49 203 -276 370 -504 280 -383 302 -415 290 -435 -13
-20 -630 -864 -756 -1034 -34 -45 -69 -92 -77 -105 -15 -20 -16 87 -16 1158
l-1 1179 62 -84 c34 -47 91 -125 128 -175z m4170 -922 c0 -1146 0 -1177 -18
-1158 -17 18 -830 1125 -845 1151 -3 6 100 154 229 330 128 175 322 439 430
587 108 147 198 267 200 267 2 0 4 -530 4 -1177z m-3627 800 c320 -184 747
-430 949 -546 202 -117 368 -215 368 -220 0 -4 -255 -6 -566 -5 l-567 3 -413
563 c-228 310 -414 566 -414 568 0 8 44 -17 643 -363z m3454 255 c-46 -62
-159 -216 -252 -343 -275 -376 -316 -431 -410 -558 l-90 -122 -570 -3 c-478
-2 -567 0 -555 11 8 8 152 93 320 189 168 97 602 347 965 557 363 209 663 381
668 381 4 0 -30 -51 -76 -112z m-2162 -1106 c-16 -10 -435 -252 -930 -537
-495 -284 -922 -531 -949 -547 -26 -16 -50 -27 -52 -25 -4 4 82 122 635 876
l185 251 570 0 c557 0 570 -1 541 -18z m1562 -182 c552 -751 682 -932 668
-926 -21 8 -1927 1106 -1940 1117 -5 5 235 8 560 7 l568 -3 144 -195z m-1060
-390 c132 -228 245 -425 251 -437 11 -19 -23 -101 -269 -660 -154 -351 -285
-647 -289 -658 -5 -11 -9 502 -9 1140 l-1 1160 39 -65 c21 -36 146 -252 278
-480z m-718 48 c-153 -265 -282 -485 -287 -490 -5 -5 -146 -24 -313 -43 -854
-94 -1060 -116 -1071 -113 -10 4 252 156 1412 826 195 113 391 227 435 253 44
26 85 48 91 48 7 1 -114 -216 -267 -481z m1499 -110 c629 -363 916 -534 900
-535 -25 -3 -1347 142 -1352 148 -11 15 -556 960 -556 965 0 3 19 -6 43 -20
23 -14 457 -265 965 -558z m-1158 -568 c0 -621 -3 -1130 -7 -1130 -5 0 -34 60
-65 133 -31 72 -157 357 -278 632 -122 275 -222 505 -223 511 0 6 109 199 243
430 133 230 260 449 282 487 21 37 41 67 43 67 3 0 5 -508 5 -1130z m-570 -15
c31 -71 157 -357 280 -635 262 -594 253 -573 243 -567 -19 10 -914 526 -1193
687 -168 97 -426 246 -573 331 -243 139 -266 155 -240 161 15 4 138 18 273 33
476 50 986 105 1050 114 105 14 97 20 160 -124z m1610 95 c963 -105 1081 -118
1086 -123 3 -3 -163 -102 -368 -220 -1423 -822 -1653 -954 -1657 -951 -2 2
128 303 289 669 l293 666 41 -6 c23 -3 165 -19 316 -35z"/>
</g>
</svg>
